# xmcd
#
# Track frame offsets:
#	150
#	20272
#	49030
#	71935
#	99300
#	121502
#	145130
#	167630
#	188545
#	204062
#
# Disc length: 2949 seconds
#
# Revision: 2
# Processed by: cddbd v1.5.2PL0 Copyright (c) Steve Scherf et al.
# Submitted via: EasyCDDAExtractor 12.1.0.1
#
DISCID=770b830a
DTITLE=The Whispers - The Whispers - Happy Holidays To You Disc 1
DYEAR=2002
DGENRE=Soul
TTITLE0=A Song for Donny
TTITLE1=My Girl
TTITLE2=Lady
TTITLE3=Can you do the Boogie
TTITLE4=And the Beat goes on
TTITLE5=I love you
TTITLE6=Out the Box
TTITLE7=Welcome into my Dream
TTITLE8=And the Beat goes on (Single Edit)
TTITLE9=Can you do the Boogie (Single Edit)
EXTD=YEAR: 1979
EXTT0=
EXTT1=
EXTT2=
EXTT3=
EXTT4=
EXTT5=
EXTT6=
EXTT7=
EXTT8=
EXTT9=
PLAYORDER=
